<?xml version="1.0" standalone="no"?>
<!DOCTYPE svg PUBLIC "-//W3C//DTD SVG 20010904//EN"
 "http://www.w3.org/TR/2001/REC-SVG-20010904/DTD/svg10.dtd">
<svg version="1.0" xmlns="http://www.w3.org/2000/svg"
 width="1280.000000pt" height="366.000000pt" viewBox="0 0 1280.000000 366.000000"
 preserveAspectRatio="xMidYMid meet">

<g transform="translate(0.000000,366.000000) scale(0.100000,-0.100000)"
fill="#000000" stroke="none">
<path d="M649 3642 c-202 -82 -426 -315 -545 -567 -150 -316 -133 -564 51
-751 69 -70 168 -124 226 -124 60 0 61 29 6 131 -68 125 -81 181 -81 334 0
224 67 448 187 625 43 62 127 150 144 150 13 0 14 -143 10 -1052 -4 -1145 -4
-1132 -62 -1332 -32 -110 -30 -140 7 -144 43 -5 140 53 208 123 108 113 172
282 190 505 5 63 10 540 10 1059 l0 944 -35 33 c-72 68 -229 101 -316 66z"/>
<path d="M4176 3637 c-26 -27 -30 -59 -42 -336 l-6 -154 -172 6 c-94 4 -176 3
-182 -1 -23 -14 -54 -93 -60 -149 -10 -97 -10 -97 211 -101 l186 -4 -3 -421
-3 -422 -33 -84 c-42 -112 -97 -202 -168 -280 l-59 -63 0 93 c0 87 -3 99 -36
169 -50 105 -114 170 -320 325 l-178 135 47 63 c60 79 121 209 129 274 7 62
-16 117 -61 141 -47 26 -177 23 -238 -5 -58 -27 -139 -101 -173 -158 -35 -60
-59 -159 -51 -213 7 -54 40 -129 68 -160 l22 -23 -33 -67 c-47 -96 -235 -423
-297 -517 -85 -129 -154 -184 -188 -150 -44 44 -52 201 -36 688 12 374 12 394
-5 431 -22 46 -74 86 -173 134 -65 31 -79 34 -131 29 -191 -17 -346 -224 -507
-677 l-59 -165 -3 381 c-3 435 6 399 -98 435 -82 30 -175 37 -193 15 -19 -22
-30 -1338 -12 -1430 25 -133 65 -167 196 -168 112 -1 118 5 134 120 35 255
156 642 278 887 81 161 220 351 242 330 7 -7 5 -115 -5 -345 -29 -633 -1 -870
113 -958 33 -24 45 -27 118 -27 74 0 85 3 140 35 83 49 193 164 273 283 37 56
135 215 217 353 l150 252 25 -18 c14 -10 75 -67 135 -127 120 -118 167 -190
186 -286 16 -79 -2 -154 -49 -208 -33 -36 -44 -42 -89 -46 -67 -7 -105 7 -204
73 -45 30 -93 54 -107 54 -57 0 -164 -164 -146 -224 23 -75 184 -140 381 -153
224 -15 422 62 571 221 78 84 114 136 183 269 l56 109 7 -62 c12 -104 53 -246
93 -322 72 -137 161 -200 294 -206 99 -5 151 19 240 108 67 67 113 138 161
245 16 36 29 54 32 45 2 -8 10 -33 16 -55 40 -131 141 -260 245 -311 55 -27
69 -29 171 -29 107 0 112 1 187 38 92 45 173 117 229 203 l42 64 21 -64 c50
-155 169 -246 321 -246 71 0 129 18 182 56 45 33 104 103 128 155 11 21 21 39
24 39 3 0 19 -23 35 -51 38 -64 107 -129 176 -166 50 -26 62 -28 169 -28 105
0 120 2 175 28 79 37 156 97 204 157 l39 50 7 -76 c4 -41 4 -79 -1 -83 -5 -4
-90 -82 -189 -173 -295 -271 -389 -379 -458 -527 -29 -60 -31 -75 -32 -171 0
-93 3 -112 26 -160 54 -114 179 -198 331 -222 154 -23 294 26 414 146 81 81
121 152 158 280 49 168 59 275 58 601 l-2 300 61 75 c199 243 371 537 499 855
l57 140 128 3 128 3 -6 -38 c-3 -21 -15 -87 -27 -147 -62 -333 -47 -623 42
-806 80 -164 248 -260 412 -236 87 13 187 97 247 207 l17 29 31 -49 c42 -64
106 -123 173 -157 71 -37 208 -45 293 -18 113 35 237 136 300 243 17 28 33 51
36 51 3 0 11 -22 18 -50 52 -201 283 -320 456 -235 61 30 110 82 152 161 31
60 41 54 42 -27 2 -111 30 -141 155 -158 61 -9 171 -1 195 13 20 13 30 78 36
256 9 282 30 401 107 640 51 157 127 308 147 295 5 -2 11 -64 15 -137 26 -510
64 -773 126 -863 43 -63 101 -88 190 -83 92 5 110 21 110 97 0 134 53 451 106
635 29 101 117 333 137 360 11 15 13 -29 14 -270 0 -396 21 -565 88 -711 51
-110 140 -195 237 -224 65 -19 156 -12 214 16 97 47 156 141 200 313 40 158
28 252 -31 252 -33 0 -48 -27 -75 -135 -45 -176 -89 -245 -158 -245 -68 0
-114 66 -150 213 -15 63 -17 131 -17 555 l0 483 -40 38 c-48 45 -178 101 -249
107 -63 6 -106 -17 -134 -73 -63 -124 -181 -498 -221 -697 -15 -77 -30 -133
-33 -124 -7 17 -25 306 -36 569 -7 168 -9 178 -34 217 -54 81 -230 137 -306
98 -45 -23 -104 -151 -193 -416 -40 -118 -76 -219 -82 -225 -6 -6 -7 83 -3
251 8 304 4 338 -48 359 -51 22 -201 48 -229 41 -14 -3 -29 -14 -33 -23 -5
-10 -11 -245 -14 -523 -5 -495 -6 -506 -29 -575 -68 -204 -153 -306 -241 -289
-64 13 -101 92 -120 259 -12 107 -12 457 0 790 9 269 8 274 -58 302 -20 8 -68
22 -106 30 -114 24 -166 -4 -166 -87 0 -29 0 -29 -47 22 -59 62 -104 92 -173
112 -109 32 -238 9 -332 -60 -144 -104 -264 -358 -297 -629 -15 -119 -13 -320
3 -425 12 -77 11 -91 -5 -146 -25 -81 -67 -137 -118 -157 -55 -22 -93 -13
-135 33 -68 75 -96 197 -96 415 0 167 7 220 62 477 38 180 40 200 29 239 -17
55 -57 94 -112 109 -47 13 -54 13 -306 -33 l-132 -24 2 76 c2 95 -16 134 -76
162 -51 23 -88 24 -153 4 -85 -25 -149 -114 -160 -223 -8 -76 7 -123 59 -179
l41 -44 -23 -77 c-69 -233 -186 -479 -328 -687 l-34 -50 1 545 c1 300 2 551 1
558 -3 36 -199 90 -262 72 -48 -14 -59 -28 -59 -77 l0 -45 -60 61 c-33 33 -86
72 -118 88 -50 25 -68 28 -152 28 -91 0 -100 -2 -172 -38 -121 -59 -209 -173
-283 -365 -58 -152 -78 -269 -79 -487 0 -104 1 -219 4 -255 7 -87 -25 -172
-90 -243 -42 -45 -52 -52 -87 -52 -150 0 -183 187 -162 903 10 377 10 394 -8
414 -42 48 -200 88 -262 67 -38 -13 -51 -35 -51 -84 l0 -36 -59 61 c-86 88
-149 115 -271 115 -87 0 -101 -3 -160 -32 -128 -63 -250 -225 -309 -410 -37
-117 -58 -243 -70 -424 -10 -145 -24 -196 -86 -319 -42 -84 -143 -192 -189
-204 -70 -17 -121 46 -152 189 -14 66 -17 128 -16 365 2 294 20 858 28 872 3
4 101 8 217 8 117 0 217 4 224 8 22 14 53 97 53 145 0 41 -3 49 -24 57 -14 5
-123 14 -243 21 -120 6 -220 13 -222 14 -1 2 1 97 5 210 5 114 5 213 1 221
-13 23 -63 44 -164 70 -119 30 -138 30 -167 1z m1460 -1072 c52 -31 88 -90
116 -192 31 -115 31 -412 -1 -563 -64 -301 -214 -458 -355 -371 -114 71 -170
354 -136 679 26 243 97 400 205 456 46 24 121 20 171 -9z m1540 -2 c41 -30 82
-108 101 -195 22 -101 21 -380 -1 -508 -34 -191 -102 -346 -178 -403 -135
-100 -243 -30 -304 199 -26 99 -27 420 -1 549 38 184 109 316 197 363 57 30
140 28 186 -5z m2617 13 c69 -29 116 -112 143 -254 25 -135 15 -422 -20 -556
-29 -113 -72 -210 -116 -266 -41 -52 -128 -95 -175 -86 -73 14 -131 90 -167
222 -19 69 -22 105 -22 294 0 165 4 237 17 309 20 109 61 213 106 270 57 71
156 100 234 67z m-2466 -1738 c-11 -392 -61 -563 -182 -630 -114 -63 -233 -16
-266 105 -27 99 45 283 173 443 70 87 267 304 276 304 3 0 2 -100 -1 -222z"/>
</g>
</svg>
